<svg width="136" height="51" viewBox="0 0 136 51" fill="none" xmlns="http://www.w3.org/2000/svg">
<circle cx="25" cy="25" r="25" transform="translate(0 1)" fill="#FAAB2B"/>
<path d="M24 7L12.5001 0L0 6.99976M24 7V22L12.5001 29.4998M24 7L12.5001 14.5M12.5001 29.4998L0 21.9998V6.99976M12.5001 29.4998V14.5M0 6.99976L12.5001 14.5" transform="translate(12.5 11.5)" stroke="black" stroke-opacity="0.3" stroke-width="2" stroke-linecap="round" stroke-linejoin="round"/>
<circle cx="2.85714" cy="2.85714" r="2.85714" transform="translate(22.1431 9.57129)" fill="#191A1E"/>
<circle cx="2.85714" cy="2.85714" r="2.85714" transform="translate(22.1431 37.4282)" fill="#191A1E"/>
<circle cx="2.85714" cy="2.85714" r="2.85714" transform="translate(33.5713 16)" fill="#191A1E"/>
<circle cx="2.85714" cy="2.85714" r="2.85714" transform="translate(33.5713 30.2856)" fill="#191A1E"/>
<circle cx="2.85714" cy="2.85714" r="2.85714" transform="translate(10 16)" fill="#191A1E"/>
<circle cx="2.85714" cy="2.85714" r="2.85714" transform="translate(22 23)" fill="#191A1E"/>
<circle cx="2.85714" cy="2.85714" r="2.85714" transform="translate(10 30.2856)" fill="#191A1E"/>
<path d="M2.15625 26V8.86719H5.78906V26H2.15625ZM24.3164 17.2695C24.3164 20.0898 23.5117 22.25 21.9023 23.75C20.3008 25.25 17.9844 26 14.9531 26H10.1016V8.86719H15.4805C18.2773 8.86719 20.4492 9.60547 21.9961 11.082C23.543 12.5586 24.3164 14.6211 24.3164 17.2695ZM20.543 17.3633C20.543 13.6836 18.918 11.8438 15.668 11.8438H13.7344V23H15.293C18.793 23 20.543 21.1211 20.543 17.3633ZM37.7344 26H27.8672V8.86719H37.7344V11.8438H31.5V15.6055H37.3008V18.582H31.5V23H37.7344V26ZM48.5977 11.6445C47.2305 11.6445 46.1719 12.1602 45.4219 13.1914C44.6719 14.2148 44.2969 15.6445 44.2969 17.4805C44.2969 21.3008 45.7305 23.2109 48.5977 23.2109C49.8008 23.2109 51.2578 22.9102 52.9688 22.3086V25.3555C51.5625 25.9414 49.9922 26.2344 48.2578 26.2344C45.7656 26.2344 43.8594 25.4805 42.5391 23.9727C41.2188 22.457 40.5586 20.2852 40.5586 17.457C40.5586 15.6758 40.8828 14.1172 41.5312 12.7812C42.1797 11.4375 43.1094 10.4102 44.3203 9.69922C45.5391 8.98047 46.9648 8.62109 48.5977 8.62109C50.2617 8.62109 51.9336 9.02344 53.6133 9.82812L52.4414 12.7812C51.8008 12.4766 51.1562 12.2109 50.5078 11.9844C49.8594 11.7578 49.2227 11.6445 48.5977 11.6445ZM72.1758 17.4102C72.1758 20.2461 71.4727 22.4258 70.0664 23.9492C68.6602 25.4727 66.6445 26.2344 64.0195 26.2344C61.3945 26.2344 59.3789 25.4727 57.9727 23.9492C56.5664 22.4258 55.8633 20.2383 55.8633 17.3867C55.8633 14.5352 56.5664 12.3594 57.9727 10.8594C59.3867 9.35156 61.4102 8.59766 64.043 8.59766C66.6758 8.59766 68.6875 9.35547 70.0781 10.8711C71.4766 12.3867 72.1758 14.5664 72.1758 17.4102ZM59.6719 17.4102C59.6719 19.3242 60.0352 20.7656 60.7617 21.7344C61.4883 22.7031 62.5742 23.1875 64.0195 23.1875C66.918 23.1875 68.3672 21.2617 68.3672 17.4102C68.3672 13.5508 66.9258 11.6211 64.043 11.6211C62.5977 11.6211 61.5078 12.1094 60.7734 13.0859C60.0391 14.0547 59.6719 15.4961 59.6719 17.4102Z" transform="translate(60)" fill="white"/>
<path d="M7.05762 19L3.96387 8.91895H3.88477C3.99609 10.9697 4.05176 12.3379 4.05176 13.0234V19H1.61719V6.15039H5.32617L8.36719 15.9766H8.41992L11.6455 6.15039H15.3545V19H12.8145V12.918C12.8145 12.6309 12.8174 12.2998 12.8232 11.9248C12.835 11.5498 12.876 10.5537 12.9463 8.93652H12.8672L9.55371 19H7.05762ZM25.998 19H18.5977V6.15039H25.998V8.38281H21.3223V11.2041H25.6729V13.4365H21.3223V16.75H25.998V19ZM36.2725 15.4316C36.2725 16.5918 35.8535 17.5059 35.0156 18.1738C34.1836 18.8418 33.0234 19.1758 31.5352 19.1758C30.1641 19.1758 28.9512 18.918 27.8965 18.4023V15.8711C28.7637 16.2578 29.4961 16.5303 30.0938 16.6885C30.6973 16.8467 31.248 16.9258 31.7461 16.9258C32.3438 16.9258 32.8008 16.8115 33.1172 16.583C33.4395 16.3545 33.6006 16.0146 33.6006 15.5635C33.6006 15.3115 33.5303 15.0889 33.3896 14.8955C33.249 14.6963 33.041 14.5059 32.7656 14.3242C32.4961 14.1426 31.9424 13.8525 31.1045 13.4541C30.3193 13.085 29.7305 12.7305 29.3379 12.3906C28.9453 12.0508 28.6318 11.6553 28.3975 11.2041C28.1631 10.7529 28.0459 10.2256 28.0459 9.62207C28.0459 8.48535 28.4297 7.5918 29.1973 6.94141C29.9707 6.29102 31.0371 5.96582 32.3965 5.96582C33.0645 5.96582 33.7002 6.04492 34.3037 6.20312C34.9131 6.36133 35.5488 6.58398 36.2109 6.87109L35.332 8.98926C34.6465 8.70801 34.0781 8.51172 33.627 8.40039C33.1816 8.28906 32.7422 8.2334 32.3086 8.2334C31.793 8.2334 31.3975 8.35352 31.1221 8.59375C30.8467 8.83398 30.709 9.14746 30.709 9.53418C30.709 9.77441 30.7646 9.98535 30.876 10.167C30.9873 10.3428 31.1631 10.5156 31.4033 10.6855C31.6494 10.8496 32.2266 11.1484 33.1348 11.582C34.3359 12.1562 35.1592 12.7334 35.6045 13.3135C36.0498 13.8877 36.2725 14.5938 36.2725 15.4316ZM49.1309 19H46.415V13.4541H41.3262V19H38.6016V6.15039H41.3262V11.1865H46.415V6.15039H49.1309V19Z" transform="translate(60 27)" fill="white"/>
</svg>
